<svg xmlns="http://www.w3.org/2000/svg" viewBox="0 12.520000457763672 322.9800109863281 37.22999954223633" data-asc="0.987"><g fill="#6c1d09"><g fill="#6c1d09" transform="translate(0, 0)"><path d="M0 13.52L4.03 13.52Q4.68 13.52 5.10 13.85Q5.53 14.17 5.68 14.67L13.08 39.58Q13.28 40.25 13.44 41.02Q13.60 41.80 13.75 42.65Q13.93 41.80 14.10 41.01Q14.28 40.23 14.50 39.58L22.93 14.67Q23.07 14.25 23.51 13.89Q23.95 13.52 24.57 13.52L25.98 13.52Q26.63 13.52 27.04 13.85Q27.45 14.17 27.63 14.67L36 39.58Q36.45 40.88 36.80 42.55Q36.95 41.73 37.08 40.98Q37.20 40.23 37.40 39.58L44.83 14.67Q44.95 14.23 45.39 13.88Q45.83 13.52 46.45 13.52L50.23 13.52L39.05 49.35L34.70 49.35L25.63 22.02Q25.35 21.25 25.13 20.23Q25 20.73 24.89 21.19Q24.77 21.65 24.65 22.02L15.53 49.35L11.18 49.35L0 13.52ZM70.65 49.35L68.67 49.35Q68.03 49.35 67.63 49.15Q67.22 48.95 67.10 48.30L66.60 45.95Q65.60 46.85 64.65 47.56Q63.70 48.27 62.65 48.76Q61.60 49.25 60.41 49.50Q59.23 49.75 57.77 49.75Q56.30 49.75 55.01 49.34Q53.73 48.93 52.77 48.10Q51.82 47.27 51.26 46.01Q50.70 44.75 50.70 43.02Q50.70 41.52 51.52 40.14Q52.35 38.75 54.19 37.67Q56.02 36.60 59 35.91Q61.98 35.23 66.28 35.13L66.28 33.15Q66.28 30.20 65.01 28.69Q63.75 27.18 61.27 27.18Q59.65 27.18 58.54 27.59Q57.42 28 56.61 28.51Q55.80 29.02 55.21 29.44Q54.63 29.85 54.05 29.85Q53.60 29.85 53.26 29.61Q52.92 29.38 52.73 29.02L51.92 27.60Q54.02 25.57 56.45 24.57Q58.88 23.57 61.83 23.57Q63.95 23.57 65.60 24.27Q67.25 24.98 68.38 26.23Q69.50 27.48 70.08 29.25Q70.65 31.03 70.65 33.15L70.65 49.35M59.10 46.63Q60.27 46.63 61.25 46.39Q62.23 46.15 63.09 45.71Q63.95 45.27 64.74 44.65Q65.53 44.02 66.28 43.23L66.28 37.95Q63.20 38.05 61.05 38.44Q58.90 38.83 57.55 39.45Q56.20 40.08 55.59 40.92Q54.98 41.77 54.98 42.83Q54.98 43.83 55.30 44.55Q55.63 45.27 56.17 45.74Q56.73 46.20 57.48 46.41Q58.23 46.63 59.10 46.63ZM77.40 49.35L77.40 24.02L80.05 24.02Q81 24.02 81.25 24.95L81.60 27.70Q83.25 25.88 85.29 24.75Q87.33 23.63 90 23.63Q92.08 23.63 93.66 24.31Q95.25 25 96.31 26.26Q97.38 27.52 97.92 29.30Q98.47 31.07 98.47 33.23L98.47 49.35L94.03 49.35L94.03 33.23Q94.03 30.35 92.71 28.76Q91.40 27.18 88.70 27.18Q86.72 27.18 85.01 28.13Q83.30 29.07 81.85 30.70L81.85 49.35L77.40 49.35ZM123.03 49.35Q122.08 49.35 121.83 48.43L121.42 45.35Q119.80 47.33 117.71 48.51Q115.63 49.70 112.92 49.70Q110.75 49.70 108.97 48.86Q107.20 48.02 105.95 46.40Q104.70 44.77 104.02 42.35Q103.35 39.92 103.35 36.77Q103.35 33.98 104.10 31.56Q104.85 29.15 106.26 27.38Q107.67 25.60 109.70 24.59Q111.72 23.57 114.30 23.57Q116.63 23.57 118.28 24.36Q119.92 25.15 121.22 26.57L121.22 12.52L125.67 12.52L125.67 49.35L123.03 49.35M114.40 46.10Q116.58 46.10 118.21 45.10Q119.85 44.10 121.22 42.27L121.22 30.02Q120 28.38 118.54 27.71Q117.08 27.05 115.30 27.05Q111.75 27.05 109.85 29.57Q107.95 32.10 107.95 36.77Q107.95 39.25 108.38 41.01Q108.80 42.77 109.63 43.91Q110.45 45.05 111.65 45.58Q112.85 46.10 114.40 46.10ZM143.18 23.63Q145.45 23.63 147.38 24.39Q149.30 25.15 150.70 26.59Q152.10 28.02 152.89 30.14Q153.68 32.25 153.68 34.95Q153.68 36 153.45 36.35Q153.22 36.70 152.60 36.70L135.75 36.70Q135.80 39.10 136.40 40.88Q137 42.65 138.05 43.84Q139.10 45.02 140.55 45.61Q142 46.20 143.80 46.20Q145.47 46.20 146.69 45.81Q147.90 45.43 148.78 44.98Q149.65 44.52 150.24 44.14Q150.82 43.75 151.25 43.75Q151.80 43.75 152.10 44.17L153.35 45.80Q152.53 46.80 151.38 47.54Q150.22 48.27 148.91 48.75Q147.60 49.23 146.20 49.46Q144.80 49.70 143.43 49.70Q140.80 49.70 138.59 48.81Q136.38 47.93 134.76 46.21Q133.15 44.50 132.25 41.98Q131.35 39.45 131.35 36.17Q131.35 33.52 132.16 31.23Q132.97 28.93 134.50 27.24Q136.03 25.55 138.22 24.59Q140.43 23.63 143.18 23.63M143.28 26.90Q140.05 26.90 138.20 28.76Q136.35 30.63 135.90 33.92L149.68 33.92Q149.68 32.38 149.25 31.09Q148.82 29.80 148 28.86Q147.18 27.93 145.99 27.41Q144.80 26.90 143.28 26.90ZM159.35 49.35L159.35 24.02L161.90 24.02Q162.63 24.02 162.90 24.30Q163.17 24.57 163.27 25.25L163.57 29.20Q164.88 26.55 166.79 25.06Q168.70 23.57 171.27 23.57Q172.32 23.57 173.17 23.81Q174.02 24.05 174.75 24.48L174.17 27.80Q174 28.43 173.40 28.43Q173.05 28.43 172.32 28.19Q171.60 27.95 170.30 27.95Q167.97 27.95 166.41 29.30Q164.85 30.65 163.80 33.23L163.80 49.35L159.35 49.35ZM219.32 49.35L215.57 49.35Q214.93 49.35 214.53 49.02Q214.13 48.70 213.93 48.20L210.57 39.55L194.50 39.55L191.15 48.20Q190.97 48.65 190.55 49Q190.13 49.35 189.50 49.35L185.75 49.35L200.07 13.52L205 13.52L219.32 49.35M195.85 36.05L209.22 36.05L203.60 21.48Q203.05 20.13 202.53 18.10Q202.25 19.13 201.99 19.99Q201.72 20.85 201.47 21.50L195.85 36.05ZM223.15 49.35L223.15 12.52L227.60 12.52L227.60 27.43Q229.22 25.70 231.20 24.66Q233.18 23.63 235.75 23.63Q237.82 23.63 239.41 24.31Q241 25 242.06 26.26Q243.13 27.52 243.68 29.30Q244.22 31.07 244.22 33.23L244.22 49.35L239.78 49.35L239.78 33.23Q239.78 30.35 238.46 28.76Q237.15 27.18 234.45 27.18Q232.47 27.18 230.76 28.13Q229.05 29.07 227.60 30.70L227.60 49.35L223.15 49.35ZM260.98 23.63Q263.25 23.63 265.18 24.39Q267.10 25.15 268.50 26.59Q269.90 28.02 270.69 30.14Q271.48 32.25 271.48 34.95Q271.48 36 271.25 36.35Q271.03 36.70 270.40 36.70L253.55 36.70Q253.60 39.10 254.20 40.88Q254.80 42.65 255.85 43.84Q256.90 45.02 258.35 45.61Q259.80 46.20 261.60 46.20Q263.28 46.20 264.49 45.81Q265.70 45.43 266.57 44.98Q267.45 44.52 268.04 44.14Q268.63 43.75 269.05 43.75Q269.60 43.75 269.90 44.17L271.15 45.80Q270.32 46.80 269.18 47.54Q268.03 48.27 266.71 48.75Q265.40 49.23 264 49.46Q262.60 49.70 261.23 49.70Q258.60 49.70 256.39 48.81Q254.18 47.93 252.56 46.21Q250.95 44.50 250.05 41.98Q249.15 39.45 249.15 36.17Q249.15 33.52 249.96 31.23Q250.78 28.93 252.30 27.24Q253.83 25.55 256.03 24.59Q258.23 23.63 260.98 23.63M261.07 26.90Q257.85 26.90 256 28.76Q254.15 30.63 253.70 33.92L267.48 33.92Q267.48 32.38 267.05 31.09Q266.63 29.80 265.80 28.86Q264.98 27.93 263.79 27.41Q262.60 26.90 261.07 26.90ZM295.75 49.35L293.77 49.35Q293.13 49.35 292.73 49.15Q292.32 48.95 292.20 48.30L291.70 45.95Q290.70 46.85 289.75 47.56Q288.80 48.27 287.75 48.76Q286.70 49.25 285.51 49.50Q284.32 49.75 282.88 49.75Q281.40 49.75 280.11 49.34Q278.82 48.93 277.88 48.10Q276.93 47.27 276.36 46.01Q275.80 44.75 275.80 43.02Q275.80 41.52 276.63 40.14Q277.45 38.75 279.29 37.67Q281.13 36.60 284.10 35.91Q287.07 35.23 291.38 35.13L291.38 33.15Q291.38 30.20 290.11 28.69Q288.85 27.18 286.38 27.18Q284.75 27.18 283.64 27.59Q282.52 28 281.71 28.51Q280.90 29.02 280.31 29.44Q279.73 29.85 279.15 29.85Q278.70 29.85 278.36 29.61Q278.02 29.38 277.82 29.02L277.02 27.60Q279.13 25.57 281.55 24.57Q283.98 23.57 286.93 23.57Q289.05 23.57 290.70 24.27Q292.35 24.98 293.48 26.23Q294.60 27.48 295.18 29.25Q295.75 31.03 295.75 33.15L295.75 49.35M284.20 46.63Q285.38 46.63 286.35 46.39Q287.32 46.15 288.19 45.71Q289.05 45.27 289.84 44.65Q290.63 44.02 291.38 43.23L291.38 37.95Q288.30 38.05 286.15 38.44Q284 38.83 282.65 39.45Q281.30 40.08 280.69 40.92Q280.07 41.77 280.07 42.83Q280.07 43.83 280.40 44.55Q280.73 45.27 281.27 45.74Q281.82 46.20 282.57 46.41Q283.32 46.63 284.20 46.63ZM320.33 49.35Q319.38 49.35 319.13 48.43L318.73 45.35Q317.10 47.33 315.01 48.51Q312.93 49.70 310.23 49.70Q308.05 49.70 306.28 48.86Q304.50 48.02 303.25 46.40Q302 44.77 301.33 42.35Q300.65 39.92 300.65 36.77Q300.65 33.98 301.40 31.56Q302.15 29.15 303.56 27.38Q304.98 25.60 307 24.59Q309.03 23.57 311.60 23.57Q313.93 23.57 315.58 24.36Q317.23 25.15 318.53 26.57L318.53 12.52L322.98 12.52L322.98 49.35L320.33 49.35M311.70 46.10Q313.88 46.10 315.51 45.10Q317.15 44.10 318.53 42.27L318.53 30.02Q317.30 28.38 315.84 27.71Q314.38 27.05 312.60 27.05Q309.05 27.05 307.15 29.57Q305.25 32.10 305.25 36.77Q305.25 39.25 305.68 41.01Q306.10 42.77 306.93 43.91Q307.75 45.05 308.95 45.58Q310.15 46.10 311.70 46.10Z"/></g><g fill="#6c1d09" transform="translate(0, 60.65)"><path d=""/></g></g></svg>