<?xml version="1.0" encoding="UTF-8"?>
<svg id="Layer_1" xmlns="http://www.w3.org/2000/svg" version="1.1" viewBox="0 0 1248 210">
  <!-- Generator: Adobe Illustrator 29.5.1, SVG Export Plug-In . SVG Version: 2.1.0 Build 141)  -->
  <defs>
    <style>
      .st0 {
        fill: #82333c;
      }
    </style>
  </defs>
  <path class="st0" d="M204.09,67.77c0,4.09-.55,8-1.12,10.99-6.52,32.56-34.05,81.13-46.7,82.61l-3.35.19c-10.61,0-17.13-6.14-18.23-13.76-.74-5.59-1.31-12.47-1.31-19.9,0-5.76.19-12.09.93-18.23-4.66,12.28-9.86,23.82-15.07,32.94-5.59,9.86-11.16,17.3-15.44,18.42-1.67.38-3.54.55-5.21.55-6.69,0-13.59-2.6-15.26-7.43-1.31-3.16-1.67-7.45-1.67-12.47,0-19.67,7.94-50.65,12.91-71.06l.16-.62c.08-.32.16-.65.24-.96h0l.14-.6h0l.14-.62.28-1.18c.21-.84.39-1.64.58-2.43.9-3.82-2.65-7.21-6.41-6.11-.03,0-.06.02-.09.03-6.46,1.88-14.93,5.63-23.71,9.99-17.31,8.6-35.77,19.57-42.02,23.36-1.47.88-3.28.92-4.78.08-3.54-2.02-9.56-6.5-10.1-13.76-.09-1.33,1.12-2.4,2.43-2.16,3.69.63,9.45-.88,21.59-6.39,9.31-4.23,35.54-18.72,56.14-23.09,2.97-.63,5.81-1.06,8.46-1.2,6.53-.38,11.95.88,15.29,4.64,1.2,1.36,1.78,3.08,1.78,4.83l.08.58c0,12.47-17.68,71.83-17.68,93.41v2.05c.19,3.72,1.31,5.02,2.6,5.02,4.28,0,12.28-13.02,13.59-15.63,9.68-18.42,21.21-52.46,28.09-71.64,1.31-5.02,2.6-10.05,4.28-15.26.36-2.98,5.4-4.47,10.05-4.47,4.28,0,8.19,1.12,8.19,2.98v.55c-10.23,29.22-14.14,62.71-14.14,83.54,0,12.47,1.29,20.47,3.54,20.47h.19c9.3,0,38.89-72.38,38.89-98.06,0-4.09-.74-6.88-2.41-8.19-.55-.38-.74-.93-.74-1.48,0-.93.55-1.67,1.67-1.86h.36c10.05,0,12.83,11.16,12.83,21.4l-.02-.06Z"/>
  <g>
    <path class="st0" d="M228.74,87.67v-4.37h26.04l21.78,72.23h5.48v4.37h-28.24v-4.37h6.34l-4.04-13.46h-29.77l-3.95,13.46h6.34v4.37h-18.5v-4.37h5.48l20.47-67.85h-7.45,0ZM241.12,92.37l-13.24,44.76h26.71l-13.46-44.76h0Z"/>
    <path class="st0" d="M310.5,159.9v-4.37h6.57v-67.85h-6.57v-4.37h25.62l31.3,61.62v-57.23h-6.57v-4.37h20.79v4.37h-6.57v72.23h-17.39l-32.94-64.79v60.4h6.57v4.37h-20.8Z"/>
    <path class="st0" d="M417.75,83.3h29.55c13.13,0,23.75,3.55,31.85,10.67,8.1,7.12,12.15,16.3,12.15,27.57s-4.06,20.49-12.15,27.64c-8.1,7.15-18.72,10.73-31.85,10.73h-29.55v-4.37h8.76v-67.85h-8.76v-4.39ZM447.3,87.67h-4.37v67.85h4.37c8.46,0,15.09-3.05,19.87-9.14,4.78-6.09,7.17-14.35,7.17-24.78s-2.38-18.7-7.17-24.8c-4.78-6.09-11.4-9.14-19.87-9.14h0Z"/>
    <path class="st0" d="M574.36,159.9h-49.13v-4.37h6.57v-67.85h-6.57v-4.37h46.96c1.61,0,2.79.06,3.55.16.77.11,1.48.51,2.13,1.2.66.69.98,1.77.98,3.24l-2.95,18.39h-4.26l-2.19-10.84c-.66-3.28-1.88-5.4-3.66-6.34-1.78-.95-5.08-1.42-9.91-1.42h-7.65v37.42h25.17v4.92h-25.17v25.51h9.85c4.74,0,8-.47,9.8-1.42,1.78-.95,3.05-3.06,3.77-6.34l2.19-9.74h4.26l2.95,17.3c0,1.47-.33,2.54-.98,3.24-.66.69-1.37,1.09-2.13,1.2-.77.11-1.96.16-3.55.16l-.02-.02Z"/>
    <path class="st0" d="M616.06,87.67v-4.37h24.07c17.72,0,28.96,4.09,33.71,12.26,1.82,3.2,2.73,7.12,2.73,11.71,0,10.65-6.06,17.8-18.17,21.45,4.59,1.53,7.65,4.7,9.19,9.52l3.28,10.94c.51,1.83,1.17,3.09,1.97,3.84.8.73,2.15,1.09,4.06,1.09s4.12-1.06,6.68-3.17l1.97,2.64c-5.84,5.32-12.04,7.99-18.61,7.99-3.36,0-6.06-.58-8.1-1.75s-3.5-3.2-4.37-6.12l-5.15-16.86c-.66-2.11-1.67-3.57-3.06-4.37-1.39-.8-3.79-1.25-7.23-1.31v24.4h8.76v4.37h-31.74v-4.37h6.57v-67.85h-6.57v-.02ZM640.13,87.67h-1.09v39.06h1.09c5.76,0,10.54-1.69,14.33-5.08s5.7-8.19,5.7-14.39-1.89-11.02-5.7-14.44c-3.79-3.43-8.57-5.15-14.33-5.15Z"/>
    <path class="st0" d="M779.56,87.67v-4.37h26.04l21.78,72.23h5.48v4.37h-28.24v-4.37h6.35l-4.04-13.46h-29.77l-3.95,13.46h6.35v4.37h-18.5v-4.37h5.48l20.47-67.85h-7.45ZM791.93,92.37l-13.24,44.76h26.71l-13.46-44.76h0Z"/>
    <path class="st0" d="M929.17,87.67v67.85h6.57v4.37h-29.55v-4.37h6.57v-25.51h-27.35v25.51h6.57v4.37h-29.55v-4.37h6.57v-67.85h-6.57v-4.37h29.55v4.37h-6.57v37.42h27.35v-37.42h-6.57v-4.37h29.55v4.37h-6.57Z"/>
    <path class="st0" d="M1022.07,159.9h-49.13v-4.37h6.57v-67.85h-6.57v-4.37h46.96c1.61,0,2.79.06,3.55.16.77.11,1.48.51,2.13,1.2.66.69.98,1.77.98,3.24l-2.95,18.39h-4.26l-2.19-10.84c-.66-3.28-1.88-5.4-3.66-6.34-1.78-.95-5.08-1.42-9.91-1.42h-7.65v37.42h25.17v4.92h-25.17v25.51h9.85c4.74,0,8-.47,9.8-1.42,1.78-.95,3.05-3.06,3.77-6.34l2.19-9.74h4.26l2.95,17.3c0,1.47-.33,2.54-.98,3.24-.66.69-1.37,1.09-2.13,1.2-.77.11-1.96.16-3.55.16l-.02-.02Z"/>
    <path class="st0" d="M1074.62,87.67v-4.37h26.04l21.78,72.23h5.48v4.37h-28.24v-4.37h6.35l-4.04-13.46h-29.77l-3.95,13.46h6.35v4.37h-18.5v-4.37h5.48l20.47-67.85h-7.45ZM1086.98,92.37l-13.24,44.76h26.71l-13.46-44.76h0Z"/>
    <path class="st0" d="M1157.45,83.3h29.55c13.13,0,23.75,3.55,31.85,10.67s12.15,16.3,12.15,27.57-4.06,20.49-12.15,27.64c-8.1,7.15-18.72,10.73-31.85,10.73h-29.55v-4.37h8.76v-67.85h-8.76v-4.39ZM1187.01,87.67h-4.37v67.85h4.37c8.46,0,15.09-3.05,19.87-9.14,4.78-6.09,7.17-14.35,7.17-24.78s-2.38-18.7-7.17-24.8c-4.78-6.09-11.4-9.14-19.87-9.14h0Z"/>
  </g>
</svg>