<svg xmlns="http://www.w3.org/2000/svg" width="278" height="379" viewBox="0 0 278 379"><rect width="100%" height="100%" fill="#DDDDDD"/><path fill="#999999" d="M66.425 198.625h6.87q.74 0 1.17.41.44.42.44 1.1v2.74h-18.35v-1.52q0-.46.19-.97t.62-.91l8.12-8.14q1.02-1.04 1.82-1.98.81-.95 1.34-1.87.54-.93.83-1.88.28-.95.28-2.01 0-.96-.27-1.69-.28-.73-.79-1.23t-1.22-.75-1.6-.25q-.82 0-1.51.23t-1.23.65-.91.97q-.37.56-.55 1.22-.32.85-.81 1.13-.5.28-1.45.13l-2.4-.43q.28-1.92 1.07-3.37.8-1.45 1.99-2.43 1.19-.97 2.74-1.46 1.54-.49 3.32-.49 1.85 0 3.38.55 1.54.54 2.63 1.54t1.7 2.41q.61 1.4.61 3.12 0 1.48-.43 2.74-.44 1.26-1.17 2.41t-1.71 2.22-2.05 2.18l-6.03 6.16q.87-.26 1.73-.4.86-.13 1.63-.13m11.9-22.5h18.48v1.98q0 .89-.18 1.43-.19.55-.37.92l-10.14 20.87q-.32.64-.89 1.1-.57.45-1.54.45h-3.31l10.34-20.44q.36-.63.7-1.16t.77-1.01h-12.81q-.42 0-.74-.31-.31-.32-.31-.74zm30.47 23.48q1.13 0 1.98-.33.85-.32 1.43-.9.58-.57.88-1.36.3-.8.3-1.72 0-2.21-1.22-3.33-1.23-1.13-3.37-1.13-2.15 0-3.37 1.13-1.22 1.12-1.22 3.33 0 .92.3 1.72.29.79.88 1.36.58.58 1.43.9.85.33 1.98.33m0-20.34q-1.02 0-1.76.32-.74.31-1.23.84t-.72 1.21q-.23.69-.23 1.45 0 .79.19 1.54.2.75.66 1.33t1.22.94q.76.35 1.87.35t1.87-.35q.76-.36 1.22-.94t.66-1.33q.19-.75.19-1.54 0-.76-.24-1.45-.24-.68-.72-1.21t-1.22-.84q-.74-.32-1.76-.32m4.51 9.66q2.44.8 3.61 2.43 1.17 1.64 1.17 4.01 0 1.78-.68 3.22-.67 1.44-1.9 2.46-1.22 1.02-2.93 1.57-1.71.56-3.78.56t-3.78-.56q-1.72-.55-2.94-1.57t-1.89-2.46q-.68-1.44-.68-3.22 0-2.37 1.17-4.01 1.16-1.63 3.6-2.43-1.94-.81-2.91-2.31t-.97-3.61q0-1.52.62-2.83t1.73-2.28q1.11-.98 2.65-1.52 1.55-.55 3.4-.55t3.39.55q1.55.54 2.66 1.52 1.11.97 1.73 2.28t.62 2.83q0 2.11-.97 3.61t-2.92 2.31m34.67 7.83-2.42 2.38-6.27-6.27-6.33 6.31-2.42-2.39 6.32-6.34-6.03-6.03 2.41-2.41 6.03 6.03 5.99-5.99 2.44 2.4-6.01 6.02zm15.39-12.75-2.4-.43q.28-1.92 1.07-3.37.8-1.45 1.99-2.43 1.19-.97 2.74-1.46 1.54-.49 3.32-.49 1.85 0 3.34.53t2.54 1.46q1.06.94 1.62 2.19.57 1.26.57 2.72 0 1.28-.29 2.25t-.82 1.69q-.54.73-1.34 1.23-.79.49-1.79.83 2.4.76 3.59 2.31 1.18 1.55 1.18 3.9 0 2-.74 3.54-.74 1.53-2 2.58-1.25 1.04-2.91 1.58t-3.51.54q-2.01 0-3.51-.47-1.5-.46-2.61-1.37-1.11-.9-1.89-2.22-.77-1.31-1.33-3.03l2.02-.83q.79-.33 1.49-.18.69.16 1.01.75.33.65.73 1.28.39.63.95 1.12.55.49 1.3.79.75.31 1.79.31 1.16 0 2.03-.38t1.46-.99q.58-.61.87-1.36.28-.75.28-1.51 0-.96-.2-1.75-.2-.78-.85-1.34-.65-.55-1.86-.87-1.21-.31-3.25-.31v-3.26q1.69-.02 2.8-.31 1.11-.3 1.76-.83.66-.52.92-1.26t.26-1.63q0-1.89-1.06-2.87-1.05-.98-2.81-.98-.81 0-1.5.23-.68.23-1.23.65-.54.42-.91.97-.37.56-.56 1.22-.31.85-.82 1.13t-1.44.13m18.78-7.88h18.48v1.98q0 .89-.18 1.43-.19.55-.37.92l-10.14 20.87q-.31.64-.89 1.1-.57.45-1.53.45h-3.32l10.35-20.44q.35-.63.69-1.16t.77-1.01h-12.8q-.43 0-.74-.31-.32-.32-.32-.74zm25.85 8.03q0 2.24 1.15 3.41 1.16 1.18 3.29 1.18 1.11 0 1.98-.36.86-.35 1.46-.96.59-.61.89-1.44.31-.83.31-1.79 0-1.1-.33-1.96-.34-.86-.95-1.45t-1.45-.91q-.84-.31-1.84-.31-1.04 0-1.87.34t-1.42.95q-.6.62-.91 1.46t-.31 1.84m-2.24 18.72 8.3-10.38q.32-.39.6-.76.27-.37.53-.74-.92.59-2.03.9t-2.33.31q-1.39 0-2.72-.49-1.34-.48-2.37-1.45-1.04-.97-1.68-2.4-.63-1.44-.63-3.36 0-1.79.66-3.37.67-1.57 1.87-2.75 1.2-1.19 2.89-1.87 1.68-.69 3.72-.69 2.05 0 3.69.65 1.63.65 2.79 1.81 1.16 1.17 1.78 2.8t.62 3.57q0 1.24-.22 2.35-.21 1.11-.6 2.13-.39 1.03-.94 2.01-.56.98-1.24 1.94l-6.13 8.74q-.31.44-.94.74-.63.31-1.42.31z"/></svg>