<svg xmlns="http://www.w3.org/2000/svg" width="588" height="396" viewBox="0 0 588 396"><rect width="100%" height="100%" fill="#DDDDDD"/><path fill="#999999" d="m134.12 178.54-1.99 11.74q1.87-.39 3.59-.56 1.71-.18 3.31-.18 4.45 0 7.84 1.33 3.39 1.32 5.7 3.66 2.3 2.34 3.47 5.48t1.17 6.77q0 4.48-1.58 8.19-1.58 3.7-4.39 6.34-2.81 2.63-6.65 4.07t-8.37 1.44q-2.65 0-5.03-.54-2.38-.55-4.46-1.46-2.09-.92-3.86-2.11-1.78-1.19-3.18-2.52l2.96-4.09q.94-1.33 2.46-1.33.97 0 1.99.63 1.01.62 2.32 1.36t3.08 1.37q1.78.62 4.27.62 2.65 0 4.68-.86 2.03-.85 3.37-2.4 1.35-1.54 2.03-3.66.68-2.13.68-4.62 0-4.6-2.67-7.2-2.67-2.59-7.89-2.59-4.02 0-8.23 1.48l-6.01-1.72 4.68-27.37h27.85v4.09q0 2.07-1.29 3.35-1.29 1.29-4.37 1.29zm50.04 40.76q2.37 0 4.17-.69 1.79-.68 3.02-1.89t1.85-2.88q.63-1.68.63-3.63 0-4.64-2.58-7.02-2.57-2.38-7.09-2.38-4.53 0-7.1 2.38-2.58 2.38-2.58 7.02 0 1.95.63 3.63.62 1.67 1.85 2.88t3.02 1.89q1.8.69 4.18.69m0-42.86q-2.15 0-3.71.66t-2.59 1.77q-1.04 1.11-1.52 2.56-.49 1.44-.49 3.04 0 1.68.41 3.26t1.38 2.8q.98 1.23 2.58 1.97 1.6.75 3.94.75t3.93-.75q1.6-.74 2.58-1.97.97-1.22 1.38-2.8t.41-3.26q0-1.6-.5-3.04-.51-1.45-1.53-2.56-1.01-1.11-2.57-1.77t-3.7-.66m9.51 20.35q5.15 1.68 7.61 5.13 2.45 3.45 2.45 8.45 0 3.74-1.42 6.78t-4 5.19q-2.57 2.14-6.18 3.31t-7.97 1.17q-4.37 0-7.98-1.17t-6.18-3.31q-2.58-2.15-4-5.19t-1.42-6.78q0-5 2.45-8.45 2.46-3.45 7.61-5.13-4.1-1.71-6.14-4.87-2.05-3.16-2.05-7.61 0-3.19 1.31-5.96 1.3-2.77 3.64-4.82t5.6-3.2 7.16-1.15 7.15 1.15q3.26 1.15 5.6 3.2t3.65 4.82q1.3 2.77 1.3 5.96 0 4.45-2.05 7.61-2.04 3.16-6.14 4.87m35.73 22.51q2.38 0 4.17-.69 1.79-.68 3.02-1.89t1.85-2.88q.63-1.68.63-3.63 0-4.64-2.58-7.02-2.57-2.38-7.09-2.38-4.53 0-7.1 2.38-2.58 2.38-2.58 7.02 0 1.95.63 3.63.62 1.67 1.85 2.88t3.02 1.89q1.8.69 4.18.69m0-42.86q-2.15 0-3.71.66t-2.59 1.77q-1.04 1.11-1.52 2.56-.49 1.44-.49 3.04 0 1.68.41 3.26t1.38 2.8q.98 1.23 2.58 1.97 1.6.75 3.94.75t3.94-.75q1.59-.74 2.57-1.97.97-1.22 1.38-2.8t.41-3.26q0-1.6-.5-3.04-.51-1.45-1.52-2.56-1.02-1.11-2.58-1.77t-3.7-.66m9.51 20.35q5.15 1.68 7.61 5.13 2.45 3.45 2.45 8.45 0 3.74-1.42 6.78t-4 5.19q-2.57 2.14-6.18 3.31t-7.97 1.17q-4.37 0-7.98-1.17t-6.18-3.31q-2.57-2.15-4-5.19-1.42-3.04-1.42-6.78 0-5 2.46-8.45 2.45-3.45 7.6-5.13-4.09-1.71-6.14-4.87t-2.05-7.61q0-3.19 1.31-5.96 1.3-2.77 3.64-4.82t5.6-3.2 7.16-1.15 7.15 1.15q3.26 1.15 5.6 3.2t3.65 4.82q1.3 2.77 1.3 5.96 0 4.45-2.05 7.61-2.04 3.16-6.14 4.87m73.09 16.5-5.11 5.03-13.22-13.22-13.34 13.3-5.11-5.03 13.34-13.38-12.71-12.71 5.07-5.07 12.71 12.71 12.64-12.63 5.14 5.07-12.67 12.67zm32.45-26.87-5.07-.9q.58-4.05 2.26-7.11 1.68-3.07 4.19-5.11 2.52-2.05 5.77-3.08 3.26-1.04 7-1.04 3.9 0 7.04 1.11t5.37 3.08q2.22 1.97 3.41 4.63 1.19 2.65 1.19 5.73 0 2.69-.61 4.74-.6 2.04-1.73 3.57-1.13 1.52-2.81 2.57t-3.78 1.75q5.07 1.6 7.56 4.88 2.5 3.28 2.5 8.23 0 4.21-1.56 7.45t-4.21 5.44q-2.66 2.2-6.15 3.33t-7.39 1.13q-4.25 0-7.41-.97-3.16-.98-5.5-2.89t-3.97-4.68q-1.64-2.77-2.81-6.39l4.25-1.76q1.68-.7 3.14-.37t2.12 1.58q.71 1.37 1.54 2.69.84 1.33 2.01 2.36t2.75 1.68q1.58.64 3.77.64 2.45 0 4.29-.8 1.83-.8 3.06-2.08 1.23-1.29 1.83-2.87.61-1.58.61-3.18 0-2.03-.43-3.68-.43-1.66-1.8-2.83-1.36-1.17-3.92-1.84-2.55-.66-6.84-.66v-6.86q3.55-.04 5.89-.66 2.34-.63 3.72-1.74 1.39-1.11 1.93-2.67.55-1.56.55-3.43 0-3.98-2.22-6.05-2.23-2.07-5.93-2.07-1.72 0-3.16.49t-2.6 1.37q-1.15.87-1.93 2.04t-1.17 2.58q-.66 1.79-1.73 2.38-1.07.58-3.02.27m48.82.31q0 4.72 2.44 7.2 2.44 2.47 6.92 2.47 2.34 0 4.18-.74 1.83-.74 3.08-2.02 1.25-1.29 1.89-3.05.64-1.75.64-3.78 0-2.3-.7-4.11-.7-1.82-1.99-3.07-1.28-1.24-3.06-1.91-1.77-.66-3.88-.66-2.18 0-3.94.72-1.75.72-3 2.01t-1.91 3.06q-.67 1.78-.67 3.88m-4.71 39.47 17.51-21.88q.66-.82 1.24-1.6.59-.78 1.14-1.56-1.95 1.25-4.29 1.89-2.34.65-4.92.65-2.92 0-5.73-1.02-2.81-1.01-4.99-3.06-2.19-2.05-3.53-5.07-1.35-3.02-1.35-7.08 0-3.78 1.41-7.1 1.4-3.31 3.93-5.81 2.54-2.49 6.09-3.94 3.55-1.44 7.84-1.44 4.33 0 7.78 1.37 3.45 1.36 5.89 3.82 2.43 2.46 3.74 5.89t1.31 7.53q0 2.61-.45 4.95t-1.27 4.5q-.82 2.17-1.99 4.23-1.17 2.07-2.61 4.1l-12.91 18.41q-.66.93-1.99 1.58-1.32.64-3 .64zm74.17-56.39L446 190.28l-1.95 2.42q1.64-.82 3.53-1.27t4.08-.45q3.2 0 6.22 1.06 3.02 1.05 5.32 3.17 2.3 2.13 3.71 5.29 1.4 3.16 1.4 7.37 0 3.94-1.44 7.39-1.45 3.45-4.06 6.03-2.61 2.57-6.3 4.05-3.68 1.48-8.13 1.48-4.52 0-8.11-1.44t-6.12-4.04q-2.54-2.59-3.88-6.24-1.35-3.64-1.35-8.09 0-3.98 1.62-8.17t5.01-8.72l13.46-18.05q.7-.94 2.04-1.6 1.35-.66 3.1-.66zm-14.54 49.14q2.3 0 4.23-.78t3.31-2.19q1.39-1.4 2.17-3.29t.78-4.12q0-2.42-.74-4.35t-2.11-3.27q-1.36-1.35-3.28-2.05-1.91-.7-4.21-.7t-4.17.78-3.2 2.16q-1.32 1.39-2.07 3.28-.74 1.89-.74 4.07 0 2.34.65 4.27.64 1.93 1.91 3.3 1.27 1.36 3.14 2.13 1.87.76 4.33.76"/></svg>