<svg xmlns="http://www.w3.org/2000/svg" width="384" height="256" viewBox="0 0 384 256"><rect width="100%" height="100%" fill="#DDDDDD"/><path fill="#999999" d="m82.15 120.425-3.32-.59q.38-2.65 1.48-4.65t2.74-3.34q1.65-1.34 3.78-2.02 2.12-.67 4.57-.67 2.55 0 4.61.73 2.05.72 3.5 2.01t2.23 3.02q.78 1.74.78 3.75 0 1.76-.39 3.1-.4 1.34-1.14 2.33-.74 1-1.84 1.68-1.09.69-2.47 1.15 3.32 1.05 4.95 3.19t1.63 5.38q0 2.75-1.02 4.87t-2.75 3.56q-1.74 1.44-4.02 2.18t-4.83.74q-2.78 0-4.85-.64-2.06-.64-3.59-1.89t-2.6-3.06q-1.08-1.81-1.84-4.18l2.78-1.15q1.1-.46 2.05-.24.96.22 1.39 1.03.46.9 1.01 1.76.55.87 1.31 1.55.77.67 1.8 1.09t2.46.42q1.61 0 2.81-.52 1.19-.52 2-1.36.8-.84 1.2-1.88.39-1.03.39-2.08 0-1.32-.28-2.41-.28-1.08-1.17-1.84-.89-.77-2.56-1.2-1.68-.44-4.48-.44v-4.48q2.32-.03 3.85-.44t2.44-1.13q.9-.73 1.26-1.75.35-1.02.35-2.24 0-2.6-1.45-3.96-1.45-1.35-3.87-1.35-1.13 0-2.07.32t-1.7.89q-.75.58-1.26 1.34-.51.77-.76 1.69-.44 1.17-1.14 1.55t-1.97.18m38.3 21.5q1.55 0 2.73-.45 1.17-.45 1.97-1.24t1.21-1.88q.41-1.1.41-2.38 0-3.03-1.68-4.59-1.69-1.55-4.64-1.55-2.96 0-4.64 1.55-1.69 1.56-1.69 4.59 0 1.28.41 2.38.41 1.09 1.21 1.88.81.79 1.98 1.24t2.73.45m0-28.03q-1.41 0-2.43.44-1.02.43-1.69 1.16-.68.72-1 1.67-.31.94-.31 1.98 0 1.1.26 2.13.27 1.04.91 1.84t1.68 1.29q1.05.48 2.58.48t2.57-.48q1.05-.49 1.69-1.29.63-.8.9-1.84.27-1.03.27-2.13 0-1.04-.33-1.98-.33-.95-1-1.67-.66-.73-1.68-1.16-1.02-.44-2.42-.44m6.22 13.31q3.36 1.1 4.97 3.36 1.61 2.25 1.61 5.52 0 2.44-.93 4.43t-2.62 3.4q-1.68 1.4-4.04 2.16-2.36.77-5.21.77-2.86 0-5.22-.77-2.36-.76-4.04-2.16-1.68-1.41-2.61-3.4t-.93-4.43q0-3.27 1.6-5.52 1.61-2.26 4.97-3.36-2.67-1.12-4.01-3.18-1.34-2.07-1.34-4.98 0-2.09.85-3.9.86-1.81 2.39-3.15t3.66-2.09 4.68-.75 4.68.75 3.66 2.09 2.38 3.15.85 3.9q0 2.91-1.33 4.98-1.34 2.06-4.02 3.18m15.5 5.33h11.22v-12.06q0-1.71.23-3.77zm16.71 0h4.64v3.65q0 .51-.34.88-.33.37-.94.37h-3.36v9h-5.49v-9h-15.55q-.64 0-1.12-.4-.49-.39-.62-.98l-.66-3.19 17.47-23.33h5.97zm45.16 5.46-3.34 3.29-8.65-8.65-8.72 8.7-3.34-3.29 8.72-8.75-8.31-8.31 3.31-3.31 8.32 8.31 8.26-8.26 3.36 3.31-8.28 8.29zm30.7 2.57h9.46q1.02 0 1.62.58.6.57.6 1.52v3.77h-25.3v-2.09q0-.64.27-1.34t.85-1.26l11.2-11.22q1.4-1.43 2.51-2.73t1.85-2.58q.74-1.27 1.13-2.58.4-1.32.4-2.77 0-1.33-.38-2.33-.39-1.01-1.09-1.7t-1.68-1.03q-.98-.35-2.21-.35-1.12 0-2.08.32-.95.32-1.69.89-.74.58-1.25 1.34-.51.77-.77 1.69-.43 1.17-1.12 1.55t-1.99.18l-3.31-.59q.38-2.65 1.48-4.65 1.09-2 2.74-3.34 1.64-1.34 3.77-2.02 2.13-.67 4.58-.67 2.55 0 4.67.75 2.11.75 3.62 2.13 1.5 1.38 2.34 3.32.84 1.93.84 4.3 0 2.04-.59 3.78-.6 1.73-1.61 3.31t-2.36 3.06-2.83 3.01l-8.31 8.49q1.2-.35 2.38-.54 1.19-.2 2.26-.2m25.68-25.29-1.3 7.67q1.22-.25 2.34-.37 1.12-.11 2.17-.11 2.91 0 5.12.87 2.22.86 3.73 2.39 1.5 1.53 2.27 3.59.76 2.05.76 4.42 0 2.93-1.03 5.36-1.03 2.42-2.87 4.14t-4.35 2.66q-2.51.95-5.47.95-1.73 0-3.29-.36-1.55-.36-2.92-.96-1.36-.59-2.52-1.37t-2.08-1.65l1.94-2.67q.61-.87 1.61-.87.63 0 1.3.41.66.4 1.51.89.86.48 2.02.89t2.79.41q1.73 0 3.06-.56t2.21-1.57 1.32-2.4q.45-1.39.45-3.02 0-3.01-1.75-4.7-1.75-1.7-5.16-1.7-2.63 0-5.38.97l-3.93-1.12 3.06-17.9h18.21v2.67q0 1.36-.84 2.2-.85.84-2.86.84zm42.17-5.71-10.94 13.38-1.27 1.59q1.07-.54 2.31-.83 1.23-.3 2.66-.3 2.09 0 4.07.69 1.97.69 3.48 2.08 1.5 1.39 2.42 3.46.92 2.06.92 4.81 0 2.58-.94 4.84-.95 2.25-2.66 3.94-1.7 1.68-4.11 2.65t-5.32.97q-2.96 0-5.3-.95-2.35-.94-4.01-2.63-1.66-1.7-2.54-4.08-.88-2.39-.88-5.3 0-2.6 1.06-5.34t3.28-5.7l8.8-11.8q.46-.62 1.34-1.05t2.02-.43zm-9.51 32.13q1.51 0 2.77-.51t2.17-1.43q.9-.92 1.41-2.16.51-1.23.51-2.69 0-1.58-.48-2.84-.49-1.26-1.38-2.14t-2.14-1.34-2.76-.46q-1.5 0-2.72.51-1.23.51-2.1 1.42-.86.9-1.35 2.14-.48 1.23-.48 2.66 0 1.53.42 2.8.42 1.26 1.25 2.15t2.05 1.39q1.23.5 2.83.5"/></svg>